<svg width="36" height="36" viewBox="0 0 36 36" fill="none" xmlns="http://www.w3.org/2000/svg">
<g clip-path="url(#clip0_135_594)">
<path fill-rule="evenodd" clip-rule="evenodd" d="M25.126 15.3877C24.5541 14.8147 23.7781 14.4922 22.9685 14.4913C22.1589 14.4903 21.382 14.8109 20.8088 15.3826C20.2373 15.956 19.917 16.733 19.9182 17.5426C19.9194 18.3522 20.2421 19.1281 20.8154 19.6998C21.3871 20.273 22.163 20.5958 22.9726 20.597C23.7822 20.5982 24.5592 20.2779 25.1326 19.7064C25.4157 19.4225 25.6402 19.0856 25.7931 18.7149C25.946 18.3443 26.0245 17.9472 26.0239 17.5462C26.0234 17.1452 25.9439 16.7483 25.7899 16.3781C25.636 16.0079 25.4099 15.6709 25.126 15.3877ZM21.9073 16.4811C22.0471 16.3421 22.2128 16.232 22.3951 16.1571C22.5774 16.0822 22.7726 16.0439 22.9697 16.0445C23.1668 16.045 23.3618 16.0844 23.5437 16.1603C23.7256 16.2362 23.8907 16.3472 24.0297 16.487C24.6196 17.0768 24.6181 18.0268 24.0355 18.6093C23.7533 18.8897 23.3712 19.0465 22.9734 19.0452C22.5755 19.044 22.1944 18.8848 21.9139 18.6028C21.6318 18.3222 21.4726 17.9411 21.4714 17.5433C21.4702 17.1455 21.627 16.7634 21.9073 16.4811Z" fill="#747474"/>
<path fill-rule="evenodd" clip-rule="evenodd" d="M9.25755 22.2528C9.75625 22.1786 10.2162 21.941 10.5654 21.5773C10.7674 21.949 11.0411 22.2433 11.3645 22.4643C12.0335 22.9195 12.8056 22.9802 13.3193 22.9085L13.3281 22.907L13.3369 22.9056C13.7009 22.8496 14.048 22.7141 14.3536 22.5087C14.6593 22.3032 14.9158 22.033 15.105 21.717C15.2711 21.4429 15.3922 21.1439 15.4637 20.8315C15.5108 20.673 15.5405 20.5098 15.5522 20.3448L15.5661 20.3441L16.2438 20.3456C16.3894 20.7591 16.6083 21.1462 16.8183 21.466C17.1101 21.908 17.4437 22.3209 17.8144 22.6992C20.6693 25.5541 25.2932 25.5673 28.143 22.7175C30.9914 19.8691 30.9789 15.2445 28.1232 12.3889C25.269 9.53464 20.6444 9.52073 17.7953 12.3698C17.1332 13.0375 16.6184 13.8365 16.2841 14.7154L5.68538 14.6935C5.18678 14.6966 4.70096 14.8515 4.29266 15.1377C3.7789 15.5066 3.40639 16.1162 3.40858 16.9703L3.41151 18.2583L3.41297 18.3183C3.45372 18.7785 3.61892 19.219 3.89088 19.5925C4.08512 19.8579 4.34041 20.0727 4.63518 20.2187C4.92994 20.3647 5.25551 20.4376 5.58438 20.4312L6.41137 20.4326C6.55976 20.9981 6.90853 21.4905 7.39279 21.818C7.93557 22.1813 8.59123 22.3364 9.23925 22.255L9.24876 22.2542L9.25755 22.2528ZM18.8931 13.4676C21.1311 11.2296 24.7728 11.234 27.0262 13.4874C29.2788 15.74 29.2832 19.3817 27.0452 21.6197C24.8057 23.8592 21.1655 23.8548 18.9114 21.6007C18.7123 21.4016 18.3918 21.0328 18.1152 20.6141C17.8275 20.1743 17.6541 19.7769 17.6285 19.4981C17.6103 19.3058 17.5212 19.1272 17.3784 18.9971C17.2356 18.8671 17.0495 18.7949 16.8564 18.7948L15.5683 18.7918C15.2748 18.7911 14.966 18.816 14.6981 18.9331C14.3593 19.0816 14.1558 19.3466 14.0687 19.6503C14.0182 19.8296 14.0124 20.0433 14.0095 20.1326L14.0087 20.1626C14.0036 20.2702 13.9941 20.3338 13.9736 20.3953L13.9546 20.4539L13.9458 20.5066L13.9436 20.519C13.9392 20.5371 13.9309 20.5658 13.9187 20.6054C13.8931 20.6866 13.8499 20.7942 13.7819 20.9032C13.7101 21.0283 13.6109 21.1354 13.4918 21.2166C13.3726 21.2977 13.2366 21.3507 13.0939 21.3716C12.8575 21.4031 12.5062 21.3636 12.2391 21.1813C12.0144 21.0284 11.7305 20.6976 11.7283 19.8801C11.728 19.6746 11.6462 19.4777 11.5009 19.3324C11.3556 19.1871 11.1587 19.1054 10.9532 19.1051L10.5244 19.1036C10.326 19.103 10.135 19.1784 9.99047 19.3142C9.84593 19.45 9.75887 19.636 9.74715 19.834C9.74423 19.8545 9.73813 19.8874 9.72886 19.9328C9.7091 20.0228 9.67324 20.1406 9.61469 20.2577C9.50564 20.478 9.33805 20.6632 9.01384 20.7195C8.81258 20.7451 8.5052 20.6968 8.26515 20.5329C8.06097 20.3946 7.86556 20.1509 7.86483 19.6569C7.86451 19.4514 7.78275 19.2545 7.63748 19.1092C7.4922 18.9639 7.29525 18.8822 7.0898 18.8819L5.58658 18.8789C5.3458 18.8782 5.22577 18.786 5.13722 18.6667C5.04519 18.5333 4.98578 18.3801 4.96377 18.2195L4.96157 16.9673C4.96011 16.619 5.08745 16.4785 5.19796 16.3987C5.34164 16.3021 5.5101 16.249 5.68318 16.2457L16.8491 16.2684C17.0241 16.2687 17.1941 16.2094 17.331 16.1004C17.468 15.9913 17.5639 15.839 17.6029 15.6683L17.6036 15.6646C17.6178 15.6073 17.6344 15.5507 17.6534 15.4948C17.9038 14.7321 18.3282 14.038 18.8931 13.4676ZM9.75008 19.815C9.74911 19.8159 9.74886 19.8181 9.74935 19.8216L9.74935 19.8201L9.75008 19.815Z" fill="#747474"/>
</g>
<defs>
<clipPath id="clip0_135_594">
<rect width="24.8399" height="24.8399" fill="white" transform="translate(17.5625) rotate(45)"/>
</clipPath>
</defs>
</svg>
