<svg width="24" height="24" viewBox="0 0 24 24" fill="none" xmlns="http://www.w3.org/2000/svg">
<path d="M1 16.4008C1 13.29 1 11.7335 1.9669 10.7677C2.9327 9.80078 4.4892 9.80078 7.6 9.80078H16.4C19.5108 9.80078 21.0673 9.80078 22.0331 10.7677C23 11.7335 23 13.29 23 16.4008C23 19.5116 23 21.0681 22.0331 22.0339C21.0673 23.0008 19.5108 23.0008 16.4 23.0008H7.6C4.4892 23.0008 2.9327 23.0008 1.9669 22.0339C1 21.0681 1 19.5116 1 16.4008Z" stroke="#747474" stroke-width="1.5"/>
<path d="M5.39844 9.8V7.6C5.39844 5.84957 6.09379 4.17084 7.33153 2.9331C8.56927 1.69536 10.248 1 11.9984 1C13.7489 1 15.4276 1.69536 16.6653 2.9331C17.9031 4.17084 18.5984 5.84957 18.5984 7.6V9.8" stroke="#747474" stroke-width="1.5" stroke-linecap="round"/>
<path d="M8.2 16.4008C8.2 16.5599 8.13679 16.7125 8.02426 16.825C7.91174 16.9376 7.75913 17.0008 7.6 17.0008C7.44087 17.0008 7.28826 16.9376 7.17574 16.825C7.06321 16.7125 7 16.5599 7 16.4008C7 16.2417 7.06321 16.089 7.17574 15.9765C7.28826 15.864 7.44087 15.8008 7.6 15.8008C7.75913 15.8008 7.91174 15.864 8.02426 15.9765C8.13679 16.089 8.2 16.2417 8.2 16.4008ZM12.6 16.4008C12.6 16.5599 12.5368 16.7125 12.4243 16.825C12.3117 16.9376 12.1591 17.0008 12 17.0008C11.8409 17.0008 11.6883 16.9376 11.5757 16.825C11.4632 16.7125 11.4 16.5599 11.4 16.4008C11.4 16.2417 11.4632 16.089 11.5757 15.9765C11.6883 15.864 11.8409 15.8008 12 15.8008C12.1591 15.8008 12.3117 15.864 12.4243 15.9765L12.7731 15.6276L12.4243 15.9765C12.5368 16.089 12.6 16.2417 12.6 16.4008ZM17 16.4008C17 16.5599 16.9368 16.7125 16.8243 16.825C16.7117 16.9376 16.5591 17.0008 16.4 17.0008C16.2409 17.0008 16.0883 16.9376 15.9757 16.825C15.8632 16.7125 15.8 16.5599 15.8 16.4008C15.8 16.2417 15.8632 16.089 15.9757 15.9765C16.0883 15.864 16.2409 15.8008 16.4 15.8008C16.5591 15.8008 16.7117 15.864 16.8243 15.9765C16.9368 16.089 17 16.2417 17 16.4008Z" fill="black" stroke="#747474"/>
</svg>
